<?xml version="1.0" encoding="UTF-8"?>
<svg width="133px" height="27px" viewBox="0 0 133 27" version="1.1" xmlns="http://www.w3.org/2000/svg" xmlns:xlink="http://www.w3.org/1999/xlink">
    <!-- Generator: Sketch 52.6 (67491) - http://www.bohemiancoding.com/sketch -->
    <title>Group</title>
    <desc>Created with Sketch.</desc>
    <g id="Web" stroke="none" stroke-width="1" fill="none" fill-rule="evenodd">
        <g id="Game-Shell" transform="translate(-65.000000, -13.000000)">
            <g id="Group" transform="translate(65.000000, 9.000000)">
                <g id="Page-1" transform="translate(0.000000, 4.000000)" fill="#212B38">
                    <path d="M6.73684211,11.6399158 C6.35221053,12.0097684 6.10526316,12.5399579 6.10526316,13.1368421 C6.10526316,13.6441263 6.28652632,14.1015579 6.57578947,14.4565895 C6.36042105,14.8722526 5.95052632,15.1578947 5.47368421,15.1578947 C4.77642105,15.1578947 4.21052632,14.5542737 4.21052632,13.8105263 L4.21052632,9.76842105 C4.21052632,9.57103158 4.25221053,9.38442105 4.32421053,9.21532632 C4.52252632,8.74778947 4.96084211,8.42105263 5.47368421,8.42105263 C6.17094737,8.42105263 6.73684211,9.024 6.73684211,9.76842105 L6.73684211,10.4421053 L6.73684211,11.6399158 Z" id="Fill-3"></path>
                    <path d="M0,3.92982456 C0,3.15508772 0.639474867,2.52631579 1.42739926,2.52631579 C2.21532365,2.52631579 2.85479851,3.15508772 2.85479851,3.92982456 L2.85479851,10.245614 L2.85479851,11.6491228 L2.85479851,13.754386 C2.85479851,14.2161404 3.00967133,14.64 3.2673169,14.9845614 C3.28658679,15.0105263 3.31085258,15.0322807 3.33083617,15.0561404 C3.40506093,15.1466667 3.48071309,15.2350877 3.56778444,15.3129825 C3.59133653,15.3319298 3.61417492,15.3508772 3.63915441,15.3705263 C3.72408466,15.4392982 3.81258342,15.5024561 3.90821917,15.5585965 C3.95532334,15.5859649 4.00171382,15.6112281 4.05167279,15.6350877 C4.15087704,15.6835088 4.25507719,15.722807 4.36213213,15.7557895 C4.4106637,15.7698246 4.45562678,15.7873684 4.50487206,15.7985965 C4.66331337,15.8357895 4.82675059,15.8596491 4.9958974,15.8596491 C5.16433051,15.8596491 5.32491293,15.834386 5.48192685,15.797193 C5.53616802,15.7852632 5.58755439,15.7677193 5.64036817,15.7508772 C5.73814501,15.72 5.83235337,15.6814035 5.92299322,15.6378947 C5.98151659,15.6098246 6.03932626,15.5838596 6.09428113,15.5508772 C6.21132787,15.4807018 6.32123761,15.4014035 6.42258296,15.3115789 C6.56675028,15.1824561 6.69664362,15.04 6.80084376,14.8778947 L6.79870266,14.8757895 C6.94286999,14.9564912 7.13699629,15.1578947 7.85069591,15.1578947 L9.66135187,15.1578947 C8.37098294,16.1157895 7.4938461,17.9578947 7.4938461,20.0701754 C7.4938461,20.2638596 7.65371482,20.4210526 7.85069591,20.4210526 C8.04767701,20.4210526 8.20754573,20.2638596 8.20754573,20.0701754 C8.20754573,17.3621053 9.76840682,15.1578947 11.6868314,15.1578947 L11.7760439,15.1578947 C11.973025,15.1578947 12.1328937,15.0007018 12.1328937,14.8070175 C12.1328937,14.6133333 11.973025,14.4561404 11.7760439,14.4561404 L10.7054944,14.4561404 L7.85069591,14.4561404 C7.06277152,14.4561404 6.42329666,13.8273684 6.42329666,13.0526316 C6.42329666,12.2778947 7.06277152,11.6491228 7.85069591,11.6491228 L13.5602929,11.6491228 C14.2511542,11.6491228 14.6172821,12.0673684 14.7914248,12.3614035 C14.8820647,12.5129825 14.9227455,12.634386 14.9256003,12.6421053 L15.7013918,15.1578947 C15.7749029,15.3929825 16.043254,16.4708772 15.9940087,16.6954386 C15.9940087,20.0701754 12.6431889,23.5789474 8.56439554,23.5789474 C3.89894107,23.5789474 0,19.8947368 0,15.1578947 C0.00570959703,15.162807 0,3.92982456 0,3.92982456" id="Fill-5"></path>
                    <path d="M10.1052632,10.8278103 L8.21052632,10.8278103 C7.98757895,10.8278103 7.77726316,10.8745939 7.57894737,10.9473684 L7.57894737,10.1780377 L7.57894737,8.87849253 C7.57894737,8.68810916 7.62063158,8.50877193 7.69263158,8.34567901 C7.89094737,7.89408707 8.32926316,7.57894737 8.84210526,7.57894737 C9.53936842,7.57894737 10.1052632,8.1611436 10.1052632,8.87849253 L10.1052632,10.1780377 L10.1052632,10.8278103 Z" id="Fill-7"></path>
                    <path d="M10.9473684,10.9473684 L10.9473684,1.45964912 C10.9473684,1.24581053 10.9890526,1.04437895 11.0610526,0.861192982 C11.2587368,0.353964912 11.6976842,0 12.2105263,0 C12.9077895,0 13.4736842,0.653922807 13.4736842,1.45964912 L13.4736842,10.2175439 L13.4736842,10.9473684 L12.8421053,10.9473684 L10.9473684,10.9473684 Z" id="Fill-9"></path>
                </g>
                <text id="rockburg" font-family="KGRedHands, KG Red Hands" font-size="23" font-weight="normal" letter-spacing="-1" fill="#292F36">
                    <tspan x="22.3154297" y="25">rockbur</tspan>
                    <tspan x="117.973145" y="25">g</tspan>
                </text>
            </g>
        </g>
    </g>
</svg>